{
	"asset":{
		"generator":"Khronos glTF Blender I/O v4.1.63",
		"version":"2.0"
	},
	"scene":0,
	"scenes":[
		{
			"name":"Scene",
			"nodes":[
				0
			]
		}
	],
	"nodes":[
		{
			"mesh":0,
			"name":"Cube",
			"rotation":[
				0.7071068286895752,
				0,
				0,
				0.7071068286895752
			]
		}
	],
	"materials":[
		{
			"doubleSided":true,
			"name":"wood",
			"pbrMetallicRoughness":{
				"baseColorFactor":[
					0.09305799752473831,
					0.03189599886536598,
					0.03189599886536598,
					1
				],
				"metallicFactor":0,
				"roughnessFactor":0.5
			}
		},
		{
			"doubleSided":true,
			"name":"shadow",
			"pbrMetallicRoughness":{
				"baseColorFactor":[
					0,
					0,
					0,
					1
				],
				"metallicFactor":0
			}
		}
	],
	"meshes":[
		{
			"name":"Cube.002",
			"primitives":[
				{
					"attributes":{
						"POSITION":0,
						"NORMAL":1,
						"TEXCOORD_0":2
					},
					"indices":3,
					"material":0
				},
				{
					"attributes":{
						"POSITION":4,
						"NORMAL":5,
						"TEXCOORD_0":6
					},
					"indices":7,
					"material":1
				}
			]
		}
	],
	"accessors":[
		{
			"bufferView":0,
			"componentType":5126,
			"count":181,
			"max":[
				0.5,
				0.5,
				0
			],
			"min":[
				-0.5,
				-0.5,
				-1
			],
			"type":"VEC3"
		},
		{
			"bufferView":1,
			"componentType":5126,
			"count":181,
			"type":"VEC3"
		},
		{
			"bufferView":2,
			"componentType":5126,
			"count":181,
			"type":"VEC2"
		},
		{
			"bufferView":3,
			"componentType":5123,
			"count":360,
			"type":"SCALAR"
		},
		{
			"bufferView":4,
			"componentType":5126,
			"count":160,
			"max":[
				0.5,
				0.5,
				0
			],
			"min":[
				-0.5,
				-0.5,
				-1
			],
			"type":"VEC3"
		},
		{
			"bufferView":5,
			"componentType":5126,
			"count":160,
			"type":"VEC3"
		},
		{
			"bufferView":6,
			"componentType":5126,
			"count":160,
			"type":"VEC2"
		},
		{
			"bufferView":7,
			"componentType":5123,
			"count":288,
			"type":"SCALAR"
		}
	],
	"bufferViews":[
		{
			"buffer":0,
			"byteLength":2172,
			"byteOffset":0,
			"target":34962
		},
		{
			"buffer":0,
			"byteLength":2172,
			"byteOffset":2172,
			"target":34962
		},
		{
			"buffer":0,
			"byteLength":1448,
			"byteOffset":4344,
			"target":34962
		},
		{
			"buffer":0,
			"byteLength":720,
			"byteOffset":5792,
			"target":34963
		},
		{
			"buffer":0,
			"byteLength":1920,
			"byteOffset":6512,
			"target":34962
		},
		{
			"buffer":0,
			"byteLength":1920,
			"byteOffset":8432,
			"target":34962
		},
		{
			"buffer":0,
			"byteLength":1280,
			"byteOffset":10352,
			"target":34962
		},
		{
			"buffer":0,
			"byteLength":576,
			"byteOffset":11632,
			"target":34963
		}
	],
	"buffers":[
		{
			"byteLength":12208,
			"uri":"create.bin"
		}
	]
}
