{
	"asset":{
		"generator":"Khronos glTF Blender I/O v4.1.62",
		"version":"2.0"
	},
	"scene":0,
	"scenes":[
		{
			"name":"Scene",
			"nodes":[
				0,
				1,
				2
			]
		}
	],
	"nodes":[
		{
			"mesh":0,
			"name":"Cube",
			"rotation":[
				0.7071068286895752,
				0,
				0,
				0.7071068286895752
			]
		},
		{
			"mesh":1,
			"name":"Sphere",
			"rotation":[
				0.7071068286895752,
				0,
				0,
				0.7071068286895752
			]
		},
		{
			"mesh":2,
			"name":"Sphere.001",
			"rotation":[
				0.7071068286895752,
				0,
				0,
				0.7071068286895752
			]
		}
	],
	"materials":[
		{
			"doubleSided":true,
			"name":"Material.001",
			"pbrMetallicRoughness":{
				"baseColorFactor":[
					0.10000000149011612,
					0.0966389998793602,
					0.0966389998793602,
					1
				],
				"metallicFactor":0,
				"roughnessFactor":0.5
			}
		},
		{
			"doubleSided":true,
			"name":"Material.002",
			"pbrMetallicRoughness":{
				"baseColorFactor":[
					0.8011729717254639,
					0.06623899936676025,
					0.04931100085377693,
					1
				],
				"metallicFactor":0,
				"roughnessFactor":0.5
			}
		},
		{
			"doubleSided":true,
			"name":"Material.003",
			"pbrMetallicRoughness":{
				"baseColorFactor":[
					0.8005989789962769,
					0.5512480139732361,
					0.3602359890937805,
					1
				],
				"metallicFactor":0,
				"roughnessFactor":0.5
			}
		},
		{
			"doubleSided":true,
			"name":"Material.004",
			"pbrMetallicRoughness":{
				"baseColorFactor":[
					0,
					0,
					0,
					1
				],
				"metallicFactor":0,
				"roughnessFactor":0.5
			}
		},
		{
			"doubleSided":true,
			"name":"Material.005",
			"pbrMetallicRoughness":{
				"baseColorFactor":[
					0,
					0,
					0,
					1
				],
				"metallicFactor":0,
				"roughnessFactor":0.5
			}
		}
	],
	"meshes":[
		{
			"name":"Cube.001",
			"primitives":[
				{
					"attributes":{
						"POSITION":0,
						"NORMAL":1,
						"TEXCOORD_0":2
					},
					"indices":3,
					"material":0
				},
				{
					"attributes":{
						"POSITION":4,
						"NORMAL":5,
						"TEXCOORD_0":6
					},
					"indices":7,
					"material":1
				},
				{
					"attributes":{
						"POSITION":8,
						"NORMAL":9,
						"TEXCOORD_0":10
					},
					"indices":11,
					"material":2
				}
			]
		},
		{
			"name":"Sphere",
			"primitives":[
				{
					"attributes":{
						"POSITION":12,
						"NORMAL":13,
						"TEXCOORD_0":14
					},
					"indices":15,
					"material":3
				}
			]
		},
		{
			"name":"Sphere.001",
			"primitives":[
				{
					"attributes":{
						"POSITION":16,
						"NORMAL":17,
						"TEXCOORD_0":18
					},
					"indices":19,
					"material":4
				}
			]
		}
	],
	"accessors":[
		{
			"bufferView":0,
			"componentType":5126,
			"count":3200,
			"max":[
				1.8466110229492188,
				1.503777027130127,
				3.2796878814697266
			],
			"min":[
				-1.8466110229492188,
				-1.5519930124282837,
				-3.4417788982391357
			],
			"type":"VEC3"
		},
		{
			"bufferView":1,
			"componentType":5126,
			"count":3200,
			"type":"VEC3"
		},
		{
			"bufferView":2,
			"componentType":5126,
			"count":3200,
			"type":"VEC2"
		},
		{
			"bufferView":3,
			"componentType":5123,
			"count":4824,
			"type":"SCALAR"
		},
		{
			"bufferView":4,
			"componentType":5126,
			"count":236,
			"max":[
				0.8523110151290894,
				0.6492999792098999,
				1.9562170505523682
			],
			"min":[
				-0.8523110151290894,
				-0.6617580056190491,
				1.6068689823150635
			],
			"type":"VEC3"
		},
		{
			"bufferView":5,
			"componentType":5126,
			"count":236,
			"type":"VEC3"
		},
		{
			"bufferView":6,
			"componentType":5126,
			"count":236,
			"type":"VEC2"
		},
		{
			"bufferView":7,
			"componentType":5123,
			"count":360,
			"type":"SCALAR"
		},
		{
			"bufferView":8,
			"componentType":5126,
			"count":192,
			"max":[
				1.3276890516281128,
				1.243406057357788,
				-0.46441900730133057
			],
			"min":[
				-1.3276890516281128,
				0.7296090126037598,
				-1.3283799886703491
			],
			"type":"VEC3"
		},
		{
			"bufferView":9,
			"componentType":5126,
			"count":192,
			"type":"VEC3"
		},
		{
			"bufferView":10,
			"componentType":5126,
			"count":192,
			"type":"VEC2"
		},
		{
			"bufferView":11,
			"componentType":5123,
			"count":288,
			"type":"SCALAR"
		},
		{
			"bufferView":12,
			"componentType":5126,
			"count":1984,
			"max":[
				0.8935930132865906,
				1.1760270595550537,
				-0.6951749920845032
			],
			"min":[
				0.47878000140190125,
				1.0459949970245361,
				-1.1155999898910522
			],
			"type":"VEC3"
		},
		{
			"bufferView":13,
			"componentType":5126,
			"count":1984,
			"type":"VEC3"
		},
		{
			"bufferView":14,
			"componentType":5126,
			"count":1984,
			"type":"VEC2"
		},
		{
			"bufferView":15,
			"componentType":5123,
			"count":2880,
			"type":"SCALAR"
		},
		{
			"bufferView":16,
			"componentType":5126,
			"count":1984,
			"max":[
				-0.40144601464271545,
				1.1929800510406494,
				-0.7067130208015442
			],
			"min":[
				-0.8171470165252686,
				1.0685980319976807,
				-1.1271369457244873
			],
			"type":"VEC3"
		},
		{
			"bufferView":17,
			"componentType":5126,
			"count":1984,
			"type":"VEC3"
		},
		{
			"bufferView":18,
			"componentType":5126,
			"count":1984,
			"type":"VEC2"
		},
		{
			"bufferView":19,
			"componentType":5123,
			"count":2880,
			"type":"SCALAR"
		}
	],
	"bufferViews":[
		{
			"buffer":0,
			"byteLength":38400,
			"byteOffset":0,
			"target":34962
		},
		{
			"buffer":0,
			"byteLength":38400,
			"byteOffset":38400,
			"target":34962
		},
		{
			"buffer":0,
			"byteLength":25600,
			"byteOffset":76800,
			"target":34962
		},
		{
			"buffer":0,
			"byteLength":9648,
			"byteOffset":102400,
			"target":34963
		},
		{
			"buffer":0,
			"byteLength":2832,
			"byteOffset":112048,
			"target":34962
		},
		{
			"buffer":0,
			"byteLength":2832,
			"byteOffset":114880,
			"target":34962
		},
		{
			"buffer":0,
			"byteLength":1888,
			"byteOffset":117712,
			"target":34962
		},
		{
			"buffer":0,
			"byteLength":720,
			"byteOffset":119600,
			"target":34963
		},
		{
			"buffer":0,
			"byteLength":2304,
			"byteOffset":120320,
			"target":34962
		},
		{
			"buffer":0,
			"byteLength":2304,
			"byteOffset":122624,
			"target":34962
		},
		{
			"buffer":0,
			"byteLength":1536,
			"byteOffset":124928,
			"target":34962
		},
		{
			"buffer":0,
			"byteLength":576,
			"byteOffset":126464,
			"target":34963
		},
		{
			"buffer":0,
			"byteLength":23808,
			"byteOffset":127040,
			"target":34962
		},
		{
			"buffer":0,
			"byteLength":23808,
			"byteOffset":150848,
			"target":34962
		},
		{
			"buffer":0,
			"byteLength":15872,
			"byteOffset":174656,
			"target":34962
		},
		{
			"buffer":0,
			"byteLength":5760,
			"byteOffset":190528,
			"target":34963
		},
		{
			"buffer":0,
			"byteLength":23808,
			"byteOffset":196288,
			"target":34962
		},
		{
			"buffer":0,
			"byteLength":23808,
			"byteOffset":220096,
			"target":34962
		},
		{
			"buffer":0,
			"byteLength":15872,
			"byteOffset":243904,
			"target":34962
		},
		{
			"buffer":0,
			"byteLength":5760,
			"byteOffset":259776,
			"target":34963
		}
	],
	"buffers":[
		{
			"byteLength":265536,
			"uri":"ninja.bin"
		}
	]
}
