{
	"asset":{
		"generator":"Khronos glTF Blender I/O v4.1.63",
		"version":"2.0"
	},
	"scene":0,
	"scenes":[
		{
			"name":"Scene",
			"nodes":[
				0,
				1,
				2,
				3,
				4,
				5,
				6,
				7,
				8
			]
		}
	],
	"nodes":[
		{
			"mesh":0,
			"name":"Cube.002",
			"rotation":[
				0.6249329447746277,
				-0.3550459146499634,
				-0.23124973475933075,
				0.6556864976882935
			],
			"translation":[
				0.20851095020771027,
				-1.5093586444854736,
				-0.6493080854415894
			]
		},
		{
			"mesh":1,
			"name":"Plane",
			"rotation":[
				0.6249329447746277,
				-0.3550459146499634,
				-0.23124973475933075,
				0.6556864976882935
			],
			"translation":[
				0.35231974720954895,
				-1.4473494291305542,
				-0.6795454621315002
			]
		},
		{
			"mesh":2,
			"name":"Plane.001",
			"rotation":[
				0.6249329447746277,
				-0.3550459146499634,
				-0.23124973475933075,
				0.6556864976882935
			],
			"translation":[
				0.42022109031677246,
				-1.3913216590881348,
				-0.6762240529060364
			]
		},
		{
			"mesh":3,
			"name":"Plane.002",
			"rotation":[
				0.6249329447746277,
				-0.3550459146499634,
				-0.23124973475933075,
				0.6556864976882935
			],
			"translation":[
				0.34294068813323975,
				-1.313448190689087,
				-0.6961252689361572
			]
		},
		{
			"mesh":4,
			"name":"Plane.003",
			"rotation":[
				0.6249329447746277,
				-0.3550459146499634,
				-0.23124973475933075,
				0.6556864976882935
			],
			"translation":[
				0.2992919981479645,
				-1.3659030199050903,
				-0.6963893175125122
			]
		},
		{
			"mesh":5,
			"name":"Plane.004",
			"rotation":[
				0.6249329447746277,
				-0.3550459146499634,
				-0.23124973475933075,
				0.6556864976882935
			],
			"translation":[
				0.16513623297214508,
				-1.5556164979934692,
				-0.6939578652381897
			]
		},
		{
			"mesh":6,
			"name":"Plane.005",
			"rotation":[
				0.6249329447746277,
				-0.3550459146499634,
				-0.23124973475933075,
				0.6556864976882935
			],
			"translation":[
				-0.039771467447280884,
				-1.7197920083999634,
				-0.703862726688385
			]
		},
		{
			"mesh":7,
			"name":"Cylinder.020",
			"rotation":[
				0.03652641922235489,
				0.02010352537035942,
				-0.44689103960990906,
				0.893616259098053
			],
			"translation":[
				-0.033245448023080826,
				-0.9387415051460266,
				-0.613561749458313
			]
		},
		{
			"mesh":8,
			"name":"Cube",
			"rotation":[
				0.7071067690849304,
				0,
				0,
				0.7071068286895752
			],
			"scale":[
				0.8716996908187866,
				0.8716996908187866,
				0.8716996908187866
			]
		}
	],
	"materials":[
		{
			"doubleSided":true,
			"name":"Material.016",
			"pbrMetallicRoughness":{
				"baseColorFactor":[
					0.8006619811058044,
					0.5255330204963684,
					0.3155289888381958,
					1
				],
				"metallicFactor":0,
				"roughnessFactor":0.5
			}
		},
		{
			"doubleSided":true,
			"name":"Material.017",
			"pbrMetallicRoughness":{
				"baseColorFactor":[
					0.7573429942131042,
					0.8000159859657288,
					0.754796028137207,
					1
				],
				"metallicFactor":0,
				"roughnessFactor":0.5
			}
		},
		{
			"doubleSided":true,
			"name":"Material.018",
			"pbrMetallicRoughness":{
				"baseColorFactor":[
					0.00043899999582208693,
					0.00043899999582208693,
					0.00043899999582208693,
					1
				],
				"metallicFactor":0,
				"roughnessFactor":0.5
			}
		},
		{
			"doubleSided":true,
			"name":"Material.030",
			"pbrMetallicRoughness":{
				"baseColorFactor":[
					0.8000858426094055,
					0.005027420818805695,
					0.004066408146172762,
					1
				],
				"metallicFactor":0,
				"roughnessFactor":0.5
			}
		},
		{
			"doubleSided":true,
			"name":"Material.011",
			"pbrMetallicRoughness":{
				"baseColorFactor":[
					0.12350942194461823,
					0.052352480590343475,
					0.018442707136273384,
					1
				],
				"metallicFactor":0,
				"roughnessFactor":0.5
			}
		},
		{
			"doubleSided":true,
			"name":"Material.012",
			"pbrMetallicRoughness":{
				"baseColorFactor":[
					0.006887698546051979,
					0.020760422572493553,
					0.02614949271082878,
					1
				],
				"metallicFactor":0,
				"roughnessFactor":0.5
			}
		},
		{
			"doubleSided":true,
			"name":"Material",
			"pbrMetallicRoughness":{
				"baseColorFactor":[
					0,
					0,
					0,
					1
				],
				"metallicFactor":0,
				"roughnessFactor":0.5
			}
		}
	],
	"meshes":[
		{
			"name":"Cube.003",
			"primitives":[
				{
					"attributes":{
						"POSITION":0,
						"NORMAL":1,
						"TEXCOORD_0":2
					},
					"indices":3,
					"material":0
				},
				{
					"attributes":{
						"POSITION":4,
						"NORMAL":5,
						"TEXCOORD_0":6
					},
					"indices":7,
					"material":1
				}
			]
		},
		{
			"name":"Plane.006",
			"primitives":[
				{
					"attributes":{
						"POSITION":8,
						"NORMAL":9,
						"TEXCOORD_0":10
					},
					"indices":11,
					"material":2
				}
			]
		},
		{
			"name":"Plane.007",
			"primitives":[
				{
					"attributes":{
						"POSITION":12,
						"NORMAL":13,
						"TEXCOORD_0":14
					},
					"indices":15,
					"material":2
				}
			]
		},
		{
			"name":"Plane.008",
			"primitives":[
				{
					"attributes":{
						"POSITION":16,
						"NORMAL":17,
						"TEXCOORD_0":18
					},
					"indices":15,
					"material":2
				}
			]
		},
		{
			"name":"Plane.009",
			"primitives":[
				{
					"attributes":{
						"POSITION":19,
						"NORMAL":20,
						"TEXCOORD_0":21
					},
					"indices":22,
					"material":2
				}
			]
		},
		{
			"name":"Plane.010",
			"primitives":[
				{
					"attributes":{
						"POSITION":23,
						"NORMAL":24,
						"TEXCOORD_0":25
					},
					"indices":26,
					"material":2
				}
			]
		},
		{
			"name":"Plane.011",
			"primitives":[
				{
					"attributes":{
						"POSITION":27,
						"NORMAL":28,
						"TEXCOORD_0":29
					},
					"indices":30,
					"material":2
				}
			]
		},
		{
			"name":"Cylinder.020",
			"primitives":[
				{
					"attributes":{
						"POSITION":31,
						"NORMAL":32,
						"TEXCOORD_0":33
					},
					"indices":34,
					"material":3
				},
				{
					"attributes":{
						"POSITION":35,
						"NORMAL":36,
						"TEXCOORD_0":37
					},
					"indices":38,
					"material":4
				},
				{
					"attributes":{
						"POSITION":39,
						"NORMAL":40,
						"TEXCOORD_0":41
					},
					"indices":42,
					"material":5
				}
			]
		},
		{
			"name":"Cube.001",
			"primitives":[
				{
					"attributes":{
						"POSITION":43,
						"NORMAL":44,
						"TEXCOORD_0":45
					},
					"indices":46,
					"material":0
				},
				{
					"attributes":{
						"POSITION":47,
						"NORMAL":48,
						"TEXCOORD_0":49
					},
					"indices":50,
					"material":3
				},
				{
					"attributes":{
						"POSITION":51,
						"NORMAL":52,
						"TEXCOORD_0":53
					},
					"indices":54,
					"material":6
				},
				{
					"attributes":{
						"POSITION":55,
						"NORMAL":56,
						"TEXCOORD_0":57
					},
					"indices":58,
					"material":6
				},
				{
					"attributes":{
						"POSITION":59,
						"NORMAL":60,
						"TEXCOORD_0":61
					},
					"indices":62,
					"material":6
				}
			]
		}
	],
	"accessors":[
		{
			"bufferView":0,
			"componentType":5126,
			"count":397,
			"max":[
				0.22679699957370758,
				0.06385666131973267,
				0.5377635955810547
			],
			"min":[
				-0.22679699957370758,
				-0.04974430799484253,
				-0.5499714016914368
			],
			"type":"VEC3"
		},
		{
			"bufferView":1,
			"componentType":5126,
			"count":397,
			"type":"VEC3"
		},
		{
			"bufferView":2,
			"componentType":5126,
			"count":397,
			"type":"VEC2"
		},
		{
			"bufferView":3,
			"componentType":5123,
			"count":681,
			"type":"SCALAR"
		},
		{
			"bufferView":4,
			"componentType":5126,
			"count":13,
			"max":[
				0.18321800231933594,
				-0.030575335025787354,
				0.4627796411514282
			],
			"min":[
				-0.18321800231933594,
				-0.030575335025787354,
				-0.3925843834877014
			],
			"type":"VEC3"
		},
		{
			"bufferView":5,
			"componentType":5126,
			"count":13,
			"type":"VEC3"
		},
		{
			"bufferView":6,
			"componentType":5126,
			"count":13,
			"type":"VEC2"
		},
		{
			"bufferView":7,
			"componentType":5123,
			"count":33,
			"type":"SCALAR"
		},
		{
			"bufferView":8,
			"componentType":5126,
			"count":14,
			"max":[
				0.06608299165964127,
				0,
				0.07171750068664551
			],
			"min":[
				-0.0600300058722496,
				0,
				-0.05805850028991699
			],
			"type":"VEC3"
		},
		{
			"bufferView":9,
			"componentType":5126,
			"count":14,
			"type":"VEC3"
		},
		{
			"bufferView":10,
			"componentType":5126,
			"count":14,
			"type":"VEC2"
		},
		{
			"bufferView":11,
			"componentType":5123,
			"count":36,
			"type":"SCALAR"
		},
		{
			"bufferView":12,
			"componentType":5126,
			"count":8,
			"max":[
				0.05519499629735947,
				0,
				0.016852736473083496
			],
			"min":[
				-0.07049399614334106,
				0,
				-0.01641225814819336
			],
			"type":"VEC3"
		},
		{
			"bufferView":13,
			"componentType":5126,
			"count":8,
			"type":"VEC3"
		},
		{
			"bufferView":14,
			"componentType":5126,
			"count":8,
			"type":"VEC2"
		},
		{
			"bufferView":15,
			"componentType":5123,
			"count":18,
			"type":"SCALAR"
		},
		{
			"bufferView":16,
			"componentType":5126,
			"count":8,
			"max":[
				0.031543876975774765,
				0,
				0.03661537170410156
			],
			"min":[
				-0.03771612048149109,
				0,
				-0.03328561782836914
			],
			"type":"VEC3"
		},
		{
			"bufferView":17,
			"componentType":5126,
			"count":8,
			"type":"VEC3"
		},
		{
			"bufferView":18,
			"componentType":5126,
			"count":8,
			"type":"VEC2"
		},
		{
			"bufferView":19,
			"componentType":5126,
			"count":10,
			"max":[
				0.030403906479477882,
				0,
				0.07981091737747192
			],
			"min":[
				-0.03885609284043312,
				0,
				-0.05208408832550049
			],
			"type":"VEC3"
		},
		{
			"bufferView":20,
			"componentType":5126,
			"count":10,
			"type":"VEC3"
		},
		{
			"bufferView":21,
			"componentType":5126,
			"count":10,
			"type":"VEC2"
		},
		{
			"bufferView":22,
			"componentType":5123,
			"count":24,
			"type":"SCALAR"
		},
		{
			"bufferView":23,
			"componentType":5126,
			"count":64,
			"max":[
				0.07946757227182388,
				-2.384185791015625e-07,
				0.11848926544189453
			],
			"min":[
				-0.07789043337106705,
				-2.384185791015625e-07,
				-0.10831880569458008
			],
			"type":"VEC3"
		},
		{
			"bufferView":24,
			"componentType":5126,
			"count":64,
			"type":"VEC3"
		},
		{
			"bufferView":25,
			"componentType":5126,
			"count":64,
			"type":"VEC2"
		},
		{
			"bufferView":26,
			"componentType":5123,
			"count":186,
			"type":"SCALAR"
		},
		{
			"bufferView":27,
			"componentType":5126,
			"count":192,
			"max":[
				0.09139484912157059,
				0.0006658434867858887,
				0.10511207580566406
			],
			"min":[
				-0.0844101533293724,
				-0.000665128231048584,
				-0.0922309160232544
			],
			"type":"VEC3"
		},
		{
			"bufferView":28,
			"componentType":5126,
			"count":192,
			"type":"VEC3"
		},
		{
			"bufferView":29,
			"componentType":5126,
			"count":192,
			"type":"VEC2"
		},
		{
			"bufferView":30,
			"componentType":5123,
			"count":372,
			"type":"SCALAR"
		},
		{
			"bufferView":31,
			"componentType":5126,
			"count":164,
			"max":[
				0.22460943460464478,
				1.8648922443389893,
				0.08263128995895386
			],
			"min":[
				-0.1171974241733551,
				1.0850900411605835,
				-0.07350930571556091
			],
			"type":"VEC3"
		},
		{
			"bufferView":32,
			"componentType":5126,
			"count":164,
			"type":"VEC3"
		},
		{
			"bufferView":33,
			"componentType":5126,
			"count":164,
			"type":"VEC2"
		},
		{
			"bufferView":34,
			"componentType":5123,
			"count":288,
			"type":"SCALAR"
		},
		{
			"bufferView":35,
			"componentType":5126,
			"count":768,
			"max":[
				0.2205198109149933,
				1.075872540473938,
				0.052257318049669266
			],
			"min":[
				-0.13236944377422333,
				-1.6822550296783447,
				-0.05225742980837822
			],
			"type":"VEC3"
		},
		{
			"bufferView":36,
			"componentType":5126,
			"count":768,
			"type":"VEC3"
		},
		{
			"bufferView":37,
			"componentType":5126,
			"count":768,
			"type":"VEC2"
		},
		{
			"bufferView":38,
			"componentType":5123,
			"count":1152,
			"type":"SCALAR"
		},
		{
			"bufferView":39,
			"componentType":5126,
			"count":380,
			"max":[
				0.237338125705719,
				1.1176886558532715,
				0.14873245358467102
			],
			"min":[
				-0.1008937805891037,
				1.0448575019836426,
				-0.14873255789279938
			],
			"type":"VEC3"
		},
		{
			"bufferView":40,
			"componentType":5126,
			"count":380,
			"type":"VEC3"
		},
		{
			"bufferView":41,
			"componentType":5126,
			"count":380,
			"type":"VEC2"
		},
		{
			"bufferView":42,
			"componentType":5123,
			"count":570,
			"type":"SCALAR"
		},
		{
			"bufferView":43,
			"componentType":5126,
			"count":21,
			"max":[
				1.3276890516281128,
				1.243406057357788,
				-0.5116066932678223
			],
			"min":[
				-1.3276890516281128,
				0.7296090126037598,
				-1.3283801078796387
			],
			"type":"VEC3"
		},
		{
			"bufferView":44,
			"componentType":5126,
			"count":21,
			"type":"VEC3"
		},
		{
			"bufferView":45,
			"componentType":5126,
			"count":21,
			"type":"VEC2"
		},
		{
			"bufferView":46,
			"componentType":5123,
			"count":72,
			"type":"SCALAR"
		},
		{
			"bufferView":47,
			"componentType":5126,
			"count":120,
			"max":[
				0.8784438967704773,
				0.6823973655700684,
				1.9343754053115845
			],
			"min":[
				-0.8784438967704773,
				-0.6946188807487488,
				1.6057788133621216
			],
			"type":"VEC3"
		},
		{
			"bufferView":48,
			"componentType":5126,
			"count":120,
			"type":"VEC3"
		},
		{
			"bufferView":49,
			"componentType":5126,
			"count":120,
			"type":"VEC2"
		},
		{
			"bufferView":50,
			"componentType":5123,
			"count":360,
			"type":"SCALAR"
		},
		{
			"bufferView":51,
			"componentType":5126,
			"count":1569,
			"max":[
				2.6691625118255615,
				1.565574288368225,
				3.398179769515991
			],
			"min":[
				-2.6691625118255615,
				-1.4736695289611816,
				-3.3418238162994385
			],
			"type":"VEC3"
		},
		{
			"bufferView":52,
			"componentType":5126,
			"count":1569,
			"type":"VEC3"
		},
		{
			"bufferView":53,
			"componentType":5126,
			"count":1569,
			"type":"VEC2"
		},
		{
			"bufferView":54,
			"componentType":5123,
			"count":8088,
			"type":"SCALAR"
		},
		{
			"bufferView":55,
			"componentType":5126,
			"count":461,
			"max":[
				0.8935929536819458,
				1.1681334972381592,
				-0.6951749324798584
			],
			"min":[
				0.47877997159957886,
				1.038616418838501,
				-1.1155998706817627
			],
			"type":"VEC3"
		},
		{
			"bufferView":56,
			"componentType":5126,
			"count":461,
			"type":"VEC3"
		},
		{
			"bufferView":57,
			"componentType":5126,
			"count":461,
			"type":"VEC2"
		},
		{
			"bufferView":58,
			"componentType":5123,
			"count":1824,
			"type":"SCALAR"
		},
		{
			"bufferView":59,
			"componentType":5126,
			"count":461,
			"max":[
				-0.40144598484039307,
				1.1929799318313599,
				-0.6938223838806152
			],
			"min":[
				-0.8171469569206238,
				1.0694618225097656,
				-1.114246129989624
			],
			"type":"VEC3"
		},
		{
			"bufferView":60,
			"componentType":5126,
			"count":461,
			"type":"VEC3"
		},
		{
			"bufferView":61,
			"componentType":5126,
			"count":461,
			"type":"VEC2"
		},
		{
			"bufferView":62,
			"componentType":5123,
			"count":1824,
			"type":"SCALAR"
		}
	],
	"bufferViews":[
		{
			"buffer":0,
			"byteLength":4764,
			"byteOffset":0,
			"target":34962
		},
		{
			"buffer":0,
			"byteLength":4764,
			"byteOffset":4764,
			"target":34962
		},
		{
			"buffer":0,
			"byteLength":3176,
			"byteOffset":9528,
			"target":34962
		},
		{
			"buffer":0,
			"byteLength":1362,
			"byteOffset":12704,
			"target":34963
		},
		{
			"buffer":0,
			"byteLength":156,
			"byteOffset":14068,
			"target":34962
		},
		{
			"buffer":0,
			"byteLength":156,
			"byteOffset":14224,
			"target":34962
		},
		{
			"buffer":0,
			"byteLength":104,
			"byteOffset":14380,
			"target":34962
		},
		{
			"buffer":0,
			"byteLength":66,
			"byteOffset":14484,
			"target":34963
		},
		{
			"buffer":0,
			"byteLength":168,
			"byteOffset":14552,
			"target":34962
		},
		{
			"buffer":0,
			"byteLength":168,
			"byteOffset":14720,
			"target":34962
		},
		{
			"buffer":0,
			"byteLength":112,
			"byteOffset":14888,
			"target":34962
		},
		{
			"buffer":0,
			"byteLength":72,
			"byteOffset":15000,
			"target":34963
		},
		{
			"buffer":0,
			"byteLength":96,
			"byteOffset":15072,
			"target":34962
		},
		{
			"buffer":0,
			"byteLength":96,
			"byteOffset":15168,
			"target":34962
		},
		{
			"buffer":0,
			"byteLength":64,
			"byteOffset":15264,
			"target":34962
		},
		{
			"buffer":0,
			"byteLength":36,
			"byteOffset":15328,
			"target":34963
		},
		{
			"buffer":0,
			"byteLength":96,
			"byteOffset":15364,
			"target":34962
		},
		{
			"buffer":0,
			"byteLength":96,
			"byteOffset":15460,
			"target":34962
		},
		{
			"buffer":0,
			"byteLength":64,
			"byteOffset":15556,
			"target":34962
		},
		{
			"buffer":0,
			"byteLength":120,
			"byteOffset":15620,
			"target":34962
		},
		{
			"buffer":0,
			"byteLength":120,
			"byteOffset":15740,
			"target":34962
		},
		{
			"buffer":0,
			"byteLength":80,
			"byteOffset":15860,
			"target":34962
		},
		{
			"buffer":0,
			"byteLength":48,
			"byteOffset":15940,
			"target":34963
		},
		{
			"buffer":0,
			"byteLength":768,
			"byteOffset":15988,
			"target":34962
		},
		{
			"buffer":0,
			"byteLength":768,
			"byteOffset":16756,
			"target":34962
		},
		{
			"buffer":0,
			"byteLength":512,
			"byteOffset":17524,
			"target":34962
		},
		{
			"buffer":0,
			"byteLength":372,
			"byteOffset":18036,
			"target":34963
		},
		{
			"buffer":0,
			"byteLength":2304,
			"byteOffset":18408,
			"target":34962
		},
		{
			"buffer":0,
			"byteLength":2304,
			"byteOffset":20712,
			"target":34962
		},
		{
			"buffer":0,
			"byteLength":1536,
			"byteOffset":23016,
			"target":34962
		},
		{
			"buffer":0,
			"byteLength":744,
			"byteOffset":24552,
			"target":34963
		},
		{
			"buffer":0,
			"byteLength":1968,
			"byteOffset":25296,
			"target":34962
		},
		{
			"buffer":0,
			"byteLength":1968,
			"byteOffset":27264,
			"target":34962
		},
		{
			"buffer":0,
			"byteLength":1312,
			"byteOffset":29232,
			"target":34962
		},
		{
			"buffer":0,
			"byteLength":576,
			"byteOffset":30544,
			"target":34963
		},
		{
			"buffer":0,
			"byteLength":9216,
			"byteOffset":31120,
			"target":34962
		},
		{
			"buffer":0,
			"byteLength":9216,
			"byteOffset":40336,
			"target":34962
		},
		{
			"buffer":0,
			"byteLength":6144,
			"byteOffset":49552,
			"target":34962
		},
		{
			"buffer":0,
			"byteLength":2304,
			"byteOffset":55696,
			"target":34963
		},
		{
			"buffer":0,
			"byteLength":4560,
			"byteOffset":58000,
			"target":34962
		},
		{
			"buffer":0,
			"byteLength":4560,
			"byteOffset":62560,
			"target":34962
		},
		{
			"buffer":0,
			"byteLength":3040,
			"byteOffset":67120,
			"target":34962
		},
		{
			"buffer":0,
			"byteLength":1140,
			"byteOffset":70160,
			"target":34963
		},
		{
			"buffer":0,
			"byteLength":252,
			"byteOffset":71300,
			"target":34962
		},
		{
			"buffer":0,
			"byteLength":252,
			"byteOffset":71552,
			"target":34962
		},
		{
			"buffer":0,
			"byteLength":168,
			"byteOffset":71804,
			"target":34962
		},
		{
			"buffer":0,
			"byteLength":144,
			"byteOffset":71972,
			"target":34963
		},
		{
			"buffer":0,
			"byteLength":1440,
			"byteOffset":72116,
			"target":34962
		},
		{
			"buffer":0,
			"byteLength":1440,
			"byteOffset":73556,
			"target":34962
		},
		{
			"buffer":0,
			"byteLength":960,
			"byteOffset":74996,
			"target":34962
		},
		{
			"buffer":0,
			"byteLength":720,
			"byteOffset":75956,
			"target":34963
		},
		{
			"buffer":0,
			"byteLength":18828,
			"byteOffset":76676,
			"target":34962
		},
		{
			"buffer":0,
			"byteLength":18828,
			"byteOffset":95504,
			"target":34962
		},
		{
			"buffer":0,
			"byteLength":12552,
			"byteOffset":114332,
			"target":34962
		},
		{
			"buffer":0,
			"byteLength":16176,
			"byteOffset":126884,
			"target":34963
		},
		{
			"buffer":0,
			"byteLength":5532,
			"byteOffset":143060,
			"target":34962
		},
		{
			"buffer":0,
			"byteLength":5532,
			"byteOffset":148592,
			"target":34962
		},
		{
			"buffer":0,
			"byteLength":3688,
			"byteOffset":154124,
			"target":34962
		},
		{
			"buffer":0,
			"byteLength":3648,
			"byteOffset":157812,
			"target":34963
		},
		{
			"buffer":0,
			"byteLength":5532,
			"byteOffset":161460,
			"target":34962
		},
		{
			"buffer":0,
			"byteLength":5532,
			"byteOffset":166992,
			"target":34962
		},
		{
			"buffer":0,
			"byteLength":3688,
			"byteOffset":172524,
			"target":34962
		},
		{
			"buffer":0,
			"byteLength":3648,
			"byteOffset":176212,
			"target":34963
		}
	],
	"buffers":[
		{
			"byteLength":179860,
			"uri":"ninjablack.bin"
		}
	]
}
