{
	"asset":{
		"generator":"Khronos glTF Blender I/O v4.1.63",
		"version":"2.0"
	},
	"scene":0,
	"scenes":[
		{
			"name":"Scene",
			"nodes":[
				0,
				1,
				2,
				3,
				4
			]
		}
	],
	"nodes":[
		{
			"mesh":0,
			"name":"Cube",
			"rotation":[
				0.7071068286895752,
				0,
				0,
				0.7071068286895752
			]
		},
		{
			"mesh":1,
			"name":"Cube.001",
			"rotation":[
				0.7071068286895752,
				0,
				0,
				0.7071068286895752
			]
		},
		{
			"mesh":2,
			"name":"Cube.002",
			"rotation":[
				0.7071068286895752,
				0,
				0,
				0.7071068286895752
			]
		},
		{
			"mesh":3,
			"name":"Cube.003",
			"rotation":[
				0.7071068286895752,
				0,
				0,
				0.7071068286895752
			]
		},
		{
			"mesh":4,
			"name":"Cylinder",
			"rotation":[
				0.7071068286895752,
				0,
				0,
				0.7071068286895752
			]
		}
	],
	"materials":[
		{
			"doubleSided":true,
			"name":"Material.009",
			"pbrMetallicRoughness":{
				"baseColorFactor":[
					0.8002039790153503,
					0,
					0,
					1
				],
				"metallicFactor":0,
				"roughnessFactor":0.5
			}
		},
		{
			"doubleSided":true,
			"name":"Material.010",
			"pbrMetallicRoughness":{
				"baseColorFactor":[
					0.8000069856643677,
					0.003593999892473221,
					0,
					1
				],
				"metallicFactor":0,
				"roughnessFactor":0.5
			}
		},
		{
			"doubleSided":true,
			"name":"Material.011",
			"pbrMetallicRoughness":{
				"baseColorFactor":[
					0.8000710010528564,
					0,
					0,
					1
				],
				"metallicFactor":0,
				"roughnessFactor":0.5
			}
		},
		{
			"doubleSided":true,
			"name":"Material.012",
			"pbrMetallicRoughness":{
				"baseColorFactor":[
					1.700000029813964e-05,
					0.0001340000017080456,
					0.003000000026077032,
					1
				],
				"metallicFactor":0,
				"roughnessFactor":0.5
			}
		},
		{
			"doubleSided":true,
			"name":"Material.013",
			"pbrMetallicRoughness":{
				"baseColorFactor":[
					0.8000710010528564,
					0,
					0,
					1
				],
				"metallicFactor":0,
				"roughnessFactor":0.5
			}
		}
	],
	"meshes":[
		{
			"name":"Cube.008",
			"primitives":[
				{
					"attributes":{
						"POSITION":0,
						"NORMAL":1,
						"TEXCOORD_0":2
					},
					"indices":3,
					"material":0
				}
			]
		},
		{
			"name":"Cube.009",
			"primitives":[
				{
					"attributes":{
						"POSITION":4,
						"NORMAL":5,
						"TEXCOORD_0":6
					},
					"indices":7,
					"material":1
				}
			]
		},
		{
			"name":"Cube.010",
			"primitives":[
				{
					"attributes":{
						"POSITION":8,
						"NORMAL":9,
						"TEXCOORD_0":10
					},
					"indices":11,
					"material":2
				}
			]
		},
		{
			"name":"Cube.011",
			"primitives":[
				{
					"attributes":{
						"POSITION":12,
						"NORMAL":13,
						"TEXCOORD_0":14
					},
					"indices":15,
					"material":3
				}
			]
		},
		{
			"name":"Cylinder",
			"primitives":[
				{
					"attributes":{
						"POSITION":16,
						"NORMAL":17,
						"TEXCOORD_0":18
					},
					"indices":19,
					"material":4
				}
			]
		}
	],
	"accessors":[
		{
			"bufferView":0,
			"componentType":5126,
			"count":104,
			"max":[
				3.537872076034546,
				0.16944999992847443,
				-1.4001829624176025
			],
			"min":[
				-3.537872076034546,
				-0.16945099830627441,
				-1.8739659786224365
			],
			"type":"VEC3"
		},
		{
			"bufferView":1,
			"componentType":5126,
			"count":104,
			"type":"VEC3"
		},
		{
			"bufferView":2,
			"componentType":5126,
			"count":104,
			"type":"VEC2"
		},
		{
			"bufferView":3,
			"componentType":5123,
			"count":240,
			"type":"SCALAR"
		},
		{
			"bufferView":4,
			"componentType":5126,
			"count":24,
			"max":[
				0.2741299867630005,
				0.09378399699926376,
				-1.8177390098571777
			],
			"min":[
				-0.21095100045204163,
				-0.09378399699926376,
				-2.7989249229431152
			],
			"type":"VEC3"
		},
		{
			"bufferView":5,
			"componentType":5126,
			"count":24,
			"type":"VEC3"
		},
		{
			"bufferView":6,
			"componentType":5126,
			"count":24,
			"type":"VEC2"
		},
		{
			"bufferView":7,
			"componentType":5123,
			"count":36,
			"type":"SCALAR"
		},
		{
			"bufferView":8,
			"componentType":5126,
			"count":204,
			"max":[
				4.230157852172852,
				0.35673999786376953,
				-2.712836980819702
			],
			"min":[
				-4.230157852172852,
				-0.3567410111427307,
				-3.4878790378570557
			],
			"type":"VEC3"
		},
		{
			"bufferView":9,
			"componentType":5126,
			"count":204,
			"type":"VEC3"
		},
		{
			"bufferView":10,
			"componentType":5126,
			"count":204,
			"type":"VEC2"
		},
		{
			"bufferView":11,
			"componentType":5123,
			"count":396,
			"type":"SCALAR"
		},
		{
			"bufferView":12,
			"componentType":5126,
			"count":264,
			"max":[
				5.069630146026611,
				0.5241910219192505,
				-3.1683719158172607
			],
			"min":[
				-5.069630146026611,
				-0.5241919755935669,
				-4.307212829589844
			],
			"type":"VEC3"
		},
		{
			"bufferView":13,
			"componentType":5126,
			"count":264,
			"type":"VEC3"
		},
		{
			"bufferView":14,
			"componentType":5126,
			"count":264,
			"type":"VEC2"
		},
		{
			"bufferView":15,
			"componentType":5123,
			"count":396,
			"type":"SCALAR"
		},
		{
			"bufferView":16,
			"componentType":5126,
			"count":1160,
			"max":[
				3.215785026550293,
				0.5343660116195679,
				4.632627010345459
			],
			"min":[
				-3.215785026550293,
				-0.5343660116195679,
				-2.8354129791259766
			],
			"type":"VEC3"
		},
		{
			"bufferView":17,
			"componentType":5126,
			"count":1160,
			"type":"VEC3"
		},
		{
			"bufferView":18,
			"componentType":5126,
			"count":1160,
			"type":"VEC2"
		},
		{
			"bufferView":19,
			"componentType":5123,
			"count":2280,
			"type":"SCALAR"
		}
	],
	"bufferViews":[
		{
			"buffer":0,
			"byteLength":1248,
			"byteOffset":0,
			"target":34962
		},
		{
			"buffer":0,
			"byteLength":1248,
			"byteOffset":1248,
			"target":34962
		},
		{
			"buffer":0,
			"byteLength":832,
			"byteOffset":2496,
			"target":34962
		},
		{
			"buffer":0,
			"byteLength":480,
			"byteOffset":3328,
			"target":34963
		},
		{
			"buffer":0,
			"byteLength":288,
			"byteOffset":3808,
			"target":34962
		},
		{
			"buffer":0,
			"byteLength":288,
			"byteOffset":4096,
			"target":34962
		},
		{
			"buffer":0,
			"byteLength":192,
			"byteOffset":4384,
			"target":34962
		},
		{
			"buffer":0,
			"byteLength":72,
			"byteOffset":4576,
			"target":34963
		},
		{
			"buffer":0,
			"byteLength":2448,
			"byteOffset":4648,
			"target":34962
		},
		{
			"buffer":0,
			"byteLength":2448,
			"byteOffset":7096,
			"target":34962
		},
		{
			"buffer":0,
			"byteLength":1632,
			"byteOffset":9544,
			"target":34962
		},
		{
			"buffer":0,
			"byteLength":792,
			"byteOffset":11176,
			"target":34963
		},
		{
			"buffer":0,
			"byteLength":3168,
			"byteOffset":11968,
			"target":34962
		},
		{
			"buffer":0,
			"byteLength":3168,
			"byteOffset":15136,
			"target":34962
		},
		{
			"buffer":0,
			"byteLength":2112,
			"byteOffset":18304,
			"target":34962
		},
		{
			"buffer":0,
			"byteLength":792,
			"byteOffset":20416,
			"target":34963
		},
		{
			"buffer":0,
			"byteLength":13920,
			"byteOffset":21208,
			"target":34962
		},
		{
			"buffer":0,
			"byteLength":13920,
			"byteOffset":35128,
			"target":34962
		},
		{
			"buffer":0,
			"byteLength":9280,
			"byteOffset":49048,
			"target":34962
		},
		{
			"buffer":0,
			"byteLength":4560,
			"byteOffset":58328,
			"target":34963
		}
	],
	"buffers":[
		{
			"byteLength":62888,
			"uri":"toriii.bin"
		}
	]
}
