{
	"asset":{
		"generator":"Khronos glTF Blender I/O v4.1.63",
		"version":"2.0"
	},
	"scene":0,
	"scenes":[
		{
			"name":"Scene",
			"nodes":[
				0,
				1,
				2,
				3
			]
		}
	],
	"nodes":[
		{
			"mesh":0,
			"name":"Cube.001",
			"rotation":[
				0.7071068286895752,
				0,
				0,
				0.7071068286895752
			],
			"translation":[
				0,
				0,
				18.608173370361328
			]
		},
		{
			"mesh":1,
			"name":"Cube.003",
			"rotation":[
				0.7071068286895752,
				0,
				0,
				0.7071068286895752
			],
			"translation":[
				0,
				0,
				18.608173370361328
			]
		},
		{
			"mesh":2,
			"name":"Cube.005",
			"rotation":[
				0.7071068286895752,
				0,
				0,
				0.7071068286895752
			],
			"translation":[
				0,
				0,
				18.608173370361328
			]
		},
		{
			"mesh":3,
			"name":"Cube.015",
			"rotation":[
				0.7071068286895752,
				0,
				0,
				0.7071068286895752
			],
			"translation":[
				0,
				0,
				18.608173370361328
			]
		}
	],
	"materials":[
		{
			"doubleSided":true,
			"name":"Material.001",
			"pbrMetallicRoughness":{
				"baseColorFactor":[
					0.06827499717473984,
					0.018648000434041023,
					0.009239000268280506,
					1
				],
				"metallicFactor":0,
				"roughnessFactor":0.5
			}
		},
		{
			"doubleSided":true,
			"name":"Material.002",
			"pbrMetallicRoughness":{
				"baseColorFactor":[
					0.7079899907112122,
					0.3301900029182434,
					0.8002189993858337,
					1
				],
				"metallicFactor":0,
				"roughnessFactor":0.5
			}
		}
	],
	"meshes":[
		{
			"name":"Cube.001",
			"primitives":[
				{
					"attributes":{
						"POSITION":0,
						"NORMAL":1,
						"TEXCOORD_0":2
					},
					"indices":3,
					"material":0
				}
			]
		},
		{
			"name":"Cube.003",
			"primitives":[
				{
					"attributes":{
						"POSITION":4,
						"NORMAL":5,
						"TEXCOORD_0":6
					},
					"indices":7,
					"material":1
				}
			]
		},
		{
			"name":"Cube.005",
			"primitives":[
				{
					"attributes":{
						"POSITION":8,
						"NORMAL":9,
						"TEXCOORD_0":10
					},
					"indices":11,
					"material":1
				}
			]
		},
		{
			"name":"Cube.015",
			"primitives":[
				{
					"attributes":{
						"POSITION":12,
						"NORMAL":13,
						"TEXCOORD_0":14
					},
					"indices":15,
					"material":1
				}
			]
		}
	],
	"accessors":[
		{
			"bufferView":0,
			"componentType":5126,
			"count":373,
			"max":[
				6.274416923522949,
				6.3718061447143555,
				0.04773800075054169
			],
			"min":[
				-5.6170220375061035,
				-6.085361957550049,
				-12.891374588012695
			],
			"type":"VEC3"
		},
		{
			"bufferView":1,
			"componentType":5126,
			"count":373,
			"type":"VEC3"
		},
		{
			"bufferView":2,
			"componentType":5126,
			"count":373,
			"type":"VEC2"
		},
		{
			"bufferView":3,
			"componentType":5123,
			"count":2016,
			"type":"SCALAR"
		},
		{
			"bufferView":4,
			"componentType":5126,
			"count":441,
			"max":[
				-0.9321780204772949,
				5.919312000274658,
				-9.258096694946289
			],
			"min":[
				-12.50185775756836,
				-3.9071478843688965,
				-18.181941986083984
			],
			"type":"VEC3"
		},
		{
			"bufferView":5,
			"componentType":5126,
			"count":441,
			"type":"VEC3"
		},
		{
			"bufferView":6,
			"componentType":5126,
			"count":441,
			"type":"VEC2"
		},
		{
			"bufferView":7,
			"componentType":5123,
			"count":2304,
			"type":"SCALAR"
		},
		{
			"bufferView":8,
			"componentType":5126,
			"count":441,
			"max":[
				5.220273971557617,
				-1.0543819665908813,
				-8.214247703552246
			],
			"min":[
				-3.374315023422241,
				-11.035970687866211,
				-17.155086517333984
			],
			"type":"VEC3"
		},
		{
			"bufferView":9,
			"componentType":5126,
			"count":441,
			"type":"VEC3"
		},
		{
			"bufferView":10,
			"componentType":5126,
			"count":441,
			"type":"VEC2"
		},
		{
			"bufferView":11,
			"componentType":5123,
			"count":2304,
			"type":"SCALAR"
		},
		{
			"bufferView":12,
			"componentType":5126,
			"count":441,
			"max":[
				8.613882064819336,
				7.087965965270996,
				-9.132476806640625
			],
			"min":[
				-1.978126049041748,
				-2.2146689891815186,
				-19.00402069091797
			],
			"type":"VEC3"
		},
		{
			"bufferView":13,
			"componentType":5126,
			"count":441,
			"type":"VEC3"
		},
		{
			"bufferView":14,
			"componentType":5126,
			"count":441,
			"type":"VEC2"
		},
		{
			"bufferView":15,
			"componentType":5123,
			"count":2304,
			"type":"SCALAR"
		}
	],
	"bufferViews":[
		{
			"buffer":0,
			"byteLength":4476,
			"byteOffset":0,
			"target":34962
		},
		{
			"buffer":0,
			"byteLength":4476,
			"byteOffset":4476,
			"target":34962
		},
		{
			"buffer":0,
			"byteLength":2984,
			"byteOffset":8952,
			"target":34962
		},
		{
			"buffer":0,
			"byteLength":4032,
			"byteOffset":11936,
			"target":34963
		},
		{
			"buffer":0,
			"byteLength":5292,
			"byteOffset":15968,
			"target":34962
		},
		{
			"buffer":0,
			"byteLength":5292,
			"byteOffset":21260,
			"target":34962
		},
		{
			"buffer":0,
			"byteLength":3528,
			"byteOffset":26552,
			"target":34962
		},
		{
			"buffer":0,
			"byteLength":4608,
			"byteOffset":30080,
			"target":34963
		},
		{
			"buffer":0,
			"byteLength":5292,
			"byteOffset":34688,
			"target":34962
		},
		{
			"buffer":0,
			"byteLength":5292,
			"byteOffset":39980,
			"target":34962
		},
		{
			"buffer":0,
			"byteLength":3528,
			"byteOffset":45272,
			"target":34962
		},
		{
			"buffer":0,
			"byteLength":4608,
			"byteOffset":48800,
			"target":34963
		},
		{
			"buffer":0,
			"byteLength":5292,
			"byteOffset":53408,
			"target":34962
		},
		{
			"buffer":0,
			"byteLength":5292,
			"byteOffset":58700,
			"target":34962
		},
		{
			"buffer":0,
			"byteLength":3528,
			"byteOffset":63992,
			"target":34962
		},
		{
			"buffer":0,
			"byteLength":4608,
			"byteOffset":67520,
			"target":34963
		}
	],
	"buffers":[
		{
			"byteLength":72128,
			"uri":"treelow.bin"
		}
	]
}
