{
	"asset":{
		"generator":"Khronos glTF Blender I/O v4.1.63",
		"version":"2.0"
	},
	"scene":0,
	"scenes":[
		{
			"name":"Scene",
			"nodes":[
				0,
				1,
				2,
				3,
				4,
				5,
				6,
				7,
				8,
				9,
				10,
				11,
				12,
				13,
				14,
				15,
				16
			]
		}
	],
	"nodes":[
		{
			"mesh":0,
			"name":"Cube.002",
			"rotation":[
				0.7071068286895752,
				0,
				0,
				0.7071068286895752
			],
			"translation":[
				0,
				0,
				39.078067779541016
			]
		},
		{
			"mesh":1,
			"name":"Cube.004",
			"rotation":[
				0.7071068286895752,
				0,
				0,
				0.7071068286895752
			],
			"translation":[
				0,
				0,
				39.078067779541016
			]
		},
		{
			"mesh":2,
			"name":"Cube.006",
			"rotation":[
				0.7071068286895752,
				0,
				0,
				0.7071068286895752
			],
			"translation":[
				0,
				0,
				39.078067779541016
			]
		},
		{
			"mesh":3,
			"name":"Cube.007",
			"rotation":[
				0.7071068286895752,
				0,
				0,
				0.7071068286895752
			],
			"translation":[
				0,
				0,
				39.078067779541016
			]
		},
		{
			"mesh":4,
			"name":"Cube.008",
			"rotation":[
				0.7071068286895752,
				0,
				0,
				0.7071068286895752
			],
			"translation":[
				0,
				0,
				39.078067779541016
			]
		},
		{
			"mesh":5,
			"name":"Cube.009",
			"rotation":[
				0.7071068286895752,
				0,
				0,
				0.7071068286895752
			],
			"translation":[
				0,
				0,
				39.078067779541016
			]
		},
		{
			"mesh":6,
			"name":"Cube.010",
			"rotation":[
				0.7071068286895752,
				0,
				0,
				0.7071068286895752
			],
			"translation":[
				0,
				0,
				39.078067779541016
			]
		},
		{
			"mesh":7,
			"name":"Cube.011",
			"rotation":[
				0.7071068286895752,
				0,
				0,
				0.7071068286895752
			],
			"translation":[
				0,
				0,
				39.078067779541016
			]
		},
		{
			"mesh":8,
			"name":"Cube.012",
			"rotation":[
				0.7071068286895752,
				0,
				0,
				0.7071068286895752
			],
			"translation":[
				0,
				0,
				39.078067779541016
			]
		},
		{
			"mesh":9,
			"name":"Cube.013",
			"rotation":[
				0.7071068286895752,
				0,
				0,
				0.7071068286895752
			],
			"translation":[
				0,
				0,
				39.078067779541016
			]
		},
		{
			"mesh":10,
			"name":"Cube.014",
			"rotation":[
				0.7071068286895752,
				0,
				0,
				0.7071068286895752
			],
			"translation":[
				0,
				0,
				39.078067779541016
			]
		},
		{
			"mesh":11,
			"name":"Cube.016",
			"rotation":[
				0.7071068286895752,
				0,
				0,
				0.7071068286895752
			],
			"translation":[
				0,
				0,
				39.078067779541016
			]
		},
		{
			"mesh":12,
			"name":"Cube.017",
			"rotation":[
				0.7071068286895752,
				0,
				0,
				0.7071068286895752
			],
			"translation":[
				0,
				0,
				39.078067779541016
			]
		},
		{
			"mesh":13,
			"name":"Cube.018",
			"rotation":[
				0.7071068286895752,
				0,
				0,
				0.7071068286895752
			],
			"translation":[
				0,
				0,
				39.078067779541016
			]
		},
		{
			"mesh":14,
			"name":"Cube.019",
			"rotation":[
				0.7071068286895752,
				0,
				0,
				0.7071068286895752
			],
			"translation":[
				0,
				0,
				39.078067779541016
			]
		},
		{
			"mesh":15,
			"name":"Cube.020",
			"rotation":[
				0.7071068286895752,
				0,
				0,
				0.7071068286895752
			],
			"translation":[
				0,
				0,
				39.078067779541016
			]
		},
		{
			"mesh":16,
			"name":"Cube.021",
			"rotation":[
				0.7071068286895752,
				0,
				0,
				0.7071068286895752
			],
			"translation":[
				0,
				0,
				39.078067779541016
			]
		}
	],
	"materials":[
		{
			"doubleSided":true,
			"name":"Material.003",
			"pbrMetallicRoughness":{
				"baseColorFactor":[
					0.06827499717473984,
					0.018648000434041023,
					0.009239000268280506,
					1
				],
				"metallicFactor":0,
				"roughnessFactor":0.5
			}
		},
		{
			"doubleSided":true,
			"name":"Material.004",
			"pbrMetallicRoughness":{
				"baseColorFactor":[
					0.7079899907112122,
					0.3301900029182434,
					0.8002189993858337,
					1
				],
				"metallicFactor":0,
				"roughnessFactor":0.5
			}
		}
	],
	"meshes":[
		{
			"name":"Cube.002",
			"primitives":[
				{
					"attributes":{
						"POSITION":0,
						"NORMAL":1,
						"TEXCOORD_0":2
					},
					"indices":3,
					"material":0
				}
			]
		},
		{
			"name":"Cube.004",
			"primitives":[
				{
					"attributes":{
						"POSITION":4,
						"NORMAL":5,
						"TEXCOORD_0":6
					},
					"indices":7,
					"material":1
				}
			]
		},
		{
			"name":"Cube.006",
			"primitives":[
				{
					"attributes":{
						"POSITION":8,
						"NORMAL":9,
						"TEXCOORD_0":10
					},
					"indices":7,
					"material":1
				}
			]
		},
		{
			"name":"Cube.007",
			"primitives":[
				{
					"attributes":{
						"POSITION":11,
						"NORMAL":12,
						"TEXCOORD_0":13
					},
					"indices":7,
					"material":1
				}
			]
		},
		{
			"name":"Cube.008",
			"primitives":[
				{
					"attributes":{
						"POSITION":14,
						"NORMAL":15,
						"TEXCOORD_0":16
					},
					"indices":7,
					"material":1
				}
			]
		},
		{
			"name":"Cube.009",
			"primitives":[
				{
					"attributes":{
						"POSITION":17,
						"NORMAL":18,
						"TEXCOORD_0":19
					},
					"indices":7,
					"material":1
				}
			]
		},
		{
			"name":"Cube.010",
			"primitives":[
				{
					"attributes":{
						"POSITION":20,
						"NORMAL":21,
						"TEXCOORD_0":22
					},
					"indices":7,
					"material":1
				}
			]
		},
		{
			"name":"Cube.011",
			"primitives":[
				{
					"attributes":{
						"POSITION":23,
						"NORMAL":24,
						"TEXCOORD_0":25
					},
					"indices":7,
					"material":1
				}
			]
		},
		{
			"name":"Cube.012",
			"primitives":[
				{
					"attributes":{
						"POSITION":26,
						"NORMAL":27,
						"TEXCOORD_0":28
					},
					"indices":7,
					"material":1
				}
			]
		},
		{
			"name":"Cube.013",
			"primitives":[
				{
					"attributes":{
						"POSITION":29,
						"NORMAL":30,
						"TEXCOORD_0":31
					},
					"indices":7,
					"material":1
				}
			]
		},
		{
			"name":"Cube.014",
			"primitives":[
				{
					"attributes":{
						"POSITION":32,
						"NORMAL":33,
						"TEXCOORD_0":34
					},
					"indices":7,
					"material":1
				}
			]
		},
		{
			"name":"Cube.016",
			"primitives":[
				{
					"attributes":{
						"POSITION":35,
						"NORMAL":36,
						"TEXCOORD_0":37
					},
					"indices":7,
					"material":1
				}
			]
		},
		{
			"name":"Cube.017",
			"primitives":[
				{
					"attributes":{
						"POSITION":38,
						"NORMAL":39,
						"TEXCOORD_0":40
					},
					"indices":7,
					"material":1
				}
			]
		},
		{
			"name":"Cube.018",
			"primitives":[
				{
					"attributes":{
						"POSITION":41,
						"NORMAL":42,
						"TEXCOORD_0":43
					},
					"indices":7,
					"material":1
				}
			]
		},
		{
			"name":"Cube.019",
			"primitives":[
				{
					"attributes":{
						"POSITION":44,
						"NORMAL":45,
						"TEXCOORD_0":46
					},
					"indices":7,
					"material":1
				}
			]
		},
		{
			"name":"Cube.020",
			"primitives":[
				{
					"attributes":{
						"POSITION":47,
						"NORMAL":48,
						"TEXCOORD_0":49
					},
					"indices":7,
					"material":1
				}
			]
		},
		{
			"name":"Cube.021",
			"primitives":[
				{
					"attributes":{
						"POSITION":50,
						"NORMAL":51,
						"TEXCOORD_0":52
					},
					"indices":7,
					"material":1
				}
			]
		}
	],
	"accessors":[
		{
			"bufferView":0,
			"componentType":5126,
			"count":373,
			"max":[
				6.274416923522949,
				6.3718061447143555,
				0.04773800075054169
			],
			"min":[
				-5.6170220375061035,
				-6.085361957550049,
				-12.891374588012695
			],
			"type":"VEC3"
		},
		{
			"bufferView":1,
			"componentType":5126,
			"count":373,
			"type":"VEC3"
		},
		{
			"bufferView":2,
			"componentType":5126,
			"count":373,
			"type":"VEC2"
		},
		{
			"bufferView":3,
			"componentType":5123,
			"count":2016,
			"type":"SCALAR"
		},
		{
			"bufferView":4,
			"componentType":5126,
			"count":125,
			"max":[
				5.614458084106445,
				9.257740020751953,
				-11.425840377807617
			],
			"min":[
				1.9297319650650024,
				4.548861980438232,
				-15.561052322387695
			],
			"type":"VEC3"
		},
		{
			"bufferView":5,
			"componentType":5126,
			"count":125,
			"type":"VEC3"
		},
		{
			"bufferView":6,
			"componentType":5126,
			"count":125,
			"type":"VEC2"
		},
		{
			"bufferView":7,
			"componentType":5123,
			"count":576,
			"type":"SCALAR"
		},
		{
			"bufferView":8,
			"componentType":5126,
			"count":125,
			"max":[
				2.9377059936523438,
				6.885581016540527,
				-10.6869535446167
			],
			"min":[
				-0.8336089849472046,
				2.3059260845184326,
				-14.227174758911133
			],
			"type":"VEC3"
		},
		{
			"bufferView":9,
			"componentType":5126,
			"count":125,
			"type":"VEC3"
		},
		{
			"bufferView":10,
			"componentType":5126,
			"count":125,
			"type":"VEC2"
		},
		{
			"bufferView":11,
			"componentType":5126,
			"count":125,
			"max":[
				-3.4445550441741943,
				3.628499984741211,
				-11.191244125366211
			],
			"min":[
				-9.446704864501953,
				-1.4556269645690918,
				-15.560500144958496
			],
			"type":"VEC3"
		},
		{
			"bufferView":12,
			"componentType":5126,
			"count":125,
			"type":"VEC3"
		},
		{
			"bufferView":13,
			"componentType":5126,
			"count":125,
			"type":"VEC2"
		},
		{
			"bufferView":14,
			"componentType":5126,
			"count":125,
			"max":[
				0.8951129913330078,
				1.1651179790496826,
				-9.38172435760498
			],
			"min":[
				-1.8183870315551758,
				-1.2115620374679565,
				-11.56890869140625
			],
			"type":"VEC3"
		},
		{
			"bufferView":15,
			"componentType":5126,
			"count":125,
			"type":"VEC3"
		},
		{
			"bufferView":16,
			"componentType":5126,
			"count":125,
			"type":"VEC2"
		},
		{
			"bufferView":17,
			"componentType":5126,
			"count":125,
			"max":[
				3.0645430088043213,
				-3.2956418991088867,
				-10.290873527526855
			],
			"min":[
				-1.5895049571990967,
				-8.864838600158691,
				-15.290061950683594
			],
			"type":"VEC3"
		},
		{
			"bufferView":18,
			"componentType":5126,
			"count":125,
			"type":"VEC3"
		},
		{
			"bufferView":19,
			"componentType":5126,
			"count":125,
			"type":"VEC2"
		},
		{
			"bufferView":20,
			"componentType":5126,
			"count":125,
			"max":[
				8.867156982421875,
				1.8151429891586304,
				-11.913714408874512
			],
			"min":[
				3.277949094772339,
				-3.142498016357422,
				-15.633777618408203
			],
			"type":"VEC3"
		},
		{
			"bufferView":21,
			"componentType":5126,
			"count":125,
			"type":"VEC3"
		},
		{
			"bufferView":22,
			"componentType":5126,
			"count":125,
			"type":"VEC2"
		},
		{
			"bufferView":23,
			"componentType":5126,
			"count":125,
			"max":[
				-0.7101510167121887,
				5.528326034545898,
				-10.643641471862793
			],
			"min":[
				-5.4378509521484375,
				1.064303994178772,
				-14.038110733032227
			],
			"type":"VEC3"
		},
		{
			"bufferView":24,
			"componentType":5126,
			"count":125,
			"type":"VEC3"
		},
		{
			"bufferView":25,
			"componentType":5126,
			"count":125,
			"type":"VEC2"
		},
		{
			"bufferView":26,
			"componentType":5126,
			"count":125,
			"max":[
				-0.4021120071411133,
				1.7258650064468384,
				-10.58639144897461
			],
			"min":[
				-4.075830936431885,
				-1.5859739780426025,
				-13.155065536499023
			],
			"type":"VEC3"
		},
		{
			"bufferView":27,
			"componentType":5126,
			"count":125,
			"type":"VEC3"
		},
		{
			"bufferView":28,
			"componentType":5126,
			"count":125,
			"type":"VEC2"
		},
		{
			"bufferView":29,
			"componentType":5126,
			"count":125,
			"max":[
				1.0785590410232544,
				-1.1059609651565552,
				-10.27524185180664
			],
			"min":[
				-3.059967041015625,
				-5.814233779907227,
				-14.211262702941895
			],
			"type":"VEC3"
		},
		{
			"bufferView":30,
			"componentType":5126,
			"count":125,
			"type":"VEC3"
		},
		{
			"bufferView":31,
			"componentType":5126,
			"count":125,
			"type":"VEC2"
		},
		{
			"bufferView":32,
			"componentType":5126,
			"count":125,
			"max":[
				4.248434066772461,
				-0.5367310047149658,
				-10.548014640808105
			],
			"min":[
				1.2220439910888672,
				-4.047496795654297,
				-14.179661750793457
			],
			"type":"VEC3"
		},
		{
			"bufferView":33,
			"componentType":5126,
			"count":125,
			"type":"VEC3"
		},
		{
			"bufferView":34,
			"componentType":5126,
			"count":125,
			"type":"VEC2"
		},
		{
			"bufferView":35,
			"componentType":5126,
			"count":125,
			"max":[
				9.666171073913574,
				6.259981155395508,
				-10.265317916870117
			],
			"min":[
				4.706439018249512,
				0.39840999245643616,
				-14.594505310058594
			],
			"type":"VEC3"
		},
		{
			"bufferView":36,
			"componentType":5126,
			"count":125,
			"type":"VEC3"
		},
		{
			"bufferView":37,
			"componentType":5126,
			"count":125,
			"type":"VEC2"
		},
		{
			"bufferView":38,
			"componentType":5126,
			"count":125,
			"max":[
				2.162436008453369,
				2.0877809524536133,
				-15.050601959228516
			],
			"min":[
				-0.8008559942245483,
				-1.727929949760437,
				-17.865793228149414
			],
			"type":"VEC3"
		},
		{
			"bufferView":39,
			"componentType":5126,
			"count":125,
			"type":"VEC3"
		},
		{
			"bufferView":40,
			"componentType":5126,
			"count":125,
			"type":"VEC2"
		},
		{
			"bufferView":41,
			"componentType":5126,
			"count":125,
			"max":[
				4.652083873748779,
				3.827341079711914,
				-10.212589263916016
			],
			"min":[
				1.6945749521255493,
				1.7619969844818115,
				-12.243680953979492
			],
			"type":"VEC3"
		},
		{
			"bufferView":42,
			"componentType":5126,
			"count":125,
			"type":"VEC3"
		},
		{
			"bufferView":43,
			"componentType":5126,
			"count":125,
			"type":"VEC2"
		},
		{
			"bufferView":44,
			"componentType":5126,
			"count":125,
			"max":[
				5.16998815536499,
				0.20497499406337738,
				-12.470258712768555
			],
			"min":[
				-0.22394099831581116,
				-3.732696056365967,
				-17.693084716796875
			],
			"type":"VEC3"
		},
		{
			"bufferView":45,
			"componentType":5126,
			"count":125,
			"type":"VEC3"
		},
		{
			"bufferView":46,
			"componentType":5126,
			"count":125,
			"type":"VEC2"
		},
		{
			"bufferView":47,
			"componentType":5126,
			"count":125,
			"max":[
				6.165824890136719,
				5.0272440910339355,
				-11.980956077575684
			],
			"min":[
				-0.03487600013613701,
				-0.3358669877052307,
				-17.85853385925293
			],
			"type":"VEC3"
		},
		{
			"bufferView":48,
			"componentType":5126,
			"count":125,
			"type":"VEC3"
		},
		{
			"bufferView":49,
			"componentType":5126,
			"count":125,
			"type":"VEC2"
		},
		{
			"bufferView":50,
			"componentType":5126,
			"count":125,
			"max":[
				0.8258230090141296,
				2.1859869956970215,
				-12.150373458862305
			],
			"min":[
				-4.3555121421813965,
				-2.7425689697265625,
				-18.380495071411133
			],
			"type":"VEC3"
		},
		{
			"bufferView":51,
			"componentType":5126,
			"count":125,
			"type":"VEC3"
		},
		{
			"bufferView":52,
			"componentType":5126,
			"count":125,
			"type":"VEC2"
		}
	],
	"bufferViews":[
		{
			"buffer":0,
			"byteLength":4476,
			"byteOffset":0,
			"target":34962
		},
		{
			"buffer":0,
			"byteLength":4476,
			"byteOffset":4476,
			"target":34962
		},
		{
			"buffer":0,
			"byteLength":2984,
			"byteOffset":8952,
			"target":34962
		},
		{
			"buffer":0,
			"byteLength":4032,
			"byteOffset":11936,
			"target":34963
		},
		{
			"buffer":0,
			"byteLength":1500,
			"byteOffset":15968,
			"target":34962
		},
		{
			"buffer":0,
			"byteLength":1500,
			"byteOffset":17468,
			"target":34962
		},
		{
			"buffer":0,
			"byteLength":1000,
			"byteOffset":18968,
			"target":34962
		},
		{
			"buffer":0,
			"byteLength":1152,
			"byteOffset":19968,
			"target":34963
		},
		{
			"buffer":0,
			"byteLength":1500,
			"byteOffset":21120,
			"target":34962
		},
		{
			"buffer":0,
			"byteLength":1500,
			"byteOffset":22620,
			"target":34962
		},
		{
			"buffer":0,
			"byteLength":1000,
			"byteOffset":24120,
			"target":34962
		},
		{
			"buffer":0,
			"byteLength":1500,
			"byteOffset":25120,
			"target":34962
		},
		{
			"buffer":0,
			"byteLength":1500,
			"byteOffset":26620,
			"target":34962
		},
		{
			"buffer":0,
			"byteLength":1000,
			"byteOffset":28120,
			"target":34962
		},
		{
			"buffer":0,
			"byteLength":1500,
			"byteOffset":29120,
			"target":34962
		},
		{
			"buffer":0,
			"byteLength":1500,
			"byteOffset":30620,
			"target":34962
		},
		{
			"buffer":0,
			"byteLength":1000,
			"byteOffset":32120,
			"target":34962
		},
		{
			"buffer":0,
			"byteLength":1500,
			"byteOffset":33120,
			"target":34962
		},
		{
			"buffer":0,
			"byteLength":1500,
			"byteOffset":34620,
			"target":34962
		},
		{
			"buffer":0,
			"byteLength":1000,
			"byteOffset":36120,
			"target":34962
		},
		{
			"buffer":0,
			"byteLength":1500,
			"byteOffset":37120,
			"target":34962
		},
		{
			"buffer":0,
			"byteLength":1500,
			"byteOffset":38620,
			"target":34962
		},
		{
			"buffer":0,
			"byteLength":1000,
			"byteOffset":40120,
			"target":34962
		},
		{
			"buffer":0,
			"byteLength":1500,
			"byteOffset":41120,
			"target":34962
		},
		{
			"buffer":0,
			"byteLength":1500,
			"byteOffset":42620,
			"target":34962
		},
		{
			"buffer":0,
			"byteLength":1000,
			"byteOffset":44120,
			"target":34962
		},
		{
			"buffer":0,
			"byteLength":1500,
			"byteOffset":45120,
			"target":34962
		},
		{
			"buffer":0,
			"byteLength":1500,
			"byteOffset":46620,
			"target":34962
		},
		{
			"buffer":0,
			"byteLength":1000,
			"byteOffset":48120,
			"target":34962
		},
		{
			"buffer":0,
			"byteLength":1500,
			"byteOffset":49120,
			"target":34962
		},
		{
			"buffer":0,
			"byteLength":1500,
			"byteOffset":50620,
			"target":34962
		},
		{
			"buffer":0,
			"byteLength":1000,
			"byteOffset":52120,
			"target":34962
		},
		{
			"buffer":0,
			"byteLength":1500,
			"byteOffset":53120,
			"target":34962
		},
		{
			"buffer":0,
			"byteLength":1500,
			"byteOffset":54620,
			"target":34962
		},
		{
			"buffer":0,
			"byteLength":1000,
			"byteOffset":56120,
			"target":34962
		},
		{
			"buffer":0,
			"byteLength":1500,
			"byteOffset":57120,
			"target":34962
		},
		{
			"buffer":0,
			"byteLength":1500,
			"byteOffset":58620,
			"target":34962
		},
		{
			"buffer":0,
			"byteLength":1000,
			"byteOffset":60120,
			"target":34962
		},
		{
			"buffer":0,
			"byteLength":1500,
			"byteOffset":61120,
			"target":34962
		},
		{
			"buffer":0,
			"byteLength":1500,
			"byteOffset":62620,
			"target":34962
		},
		{
			"buffer":0,
			"byteLength":1000,
			"byteOffset":64120,
			"target":34962
		},
		{
			"buffer":0,
			"byteLength":1500,
			"byteOffset":65120,
			"target":34962
		},
		{
			"buffer":0,
			"byteLength":1500,
			"byteOffset":66620,
			"target":34962
		},
		{
			"buffer":0,
			"byteLength":1000,
			"byteOffset":68120,
			"target":34962
		},
		{
			"buffer":0,
			"byteLength":1500,
			"byteOffset":69120,
			"target":34962
		},
		{
			"buffer":0,
			"byteLength":1500,
			"byteOffset":70620,
			"target":34962
		},
		{
			"buffer":0,
			"byteLength":1000,
			"byteOffset":72120,
			"target":34962
		},
		{
			"buffer":0,
			"byteLength":1500,
			"byteOffset":73120,
			"target":34962
		},
		{
			"buffer":0,
			"byteLength":1500,
			"byteOffset":74620,
			"target":34962
		},
		{
			"buffer":0,
			"byteLength":1000,
			"byteOffset":76120,
			"target":34962
		},
		{
			"buffer":0,
			"byteLength":1500,
			"byteOffset":77120,
			"target":34962
		},
		{
			"buffer":0,
			"byteLength":1500,
			"byteOffset":78620,
			"target":34962
		},
		{
			"buffer":0,
			"byteLength":1000,
			"byteOffset":80120,
			"target":34962
		}
	],
	"buffers":[
		{
			"byteLength":81120,
			"uri":"treeunsubdivided.bin"
		}
	]
}
